<svg width="96" height="96" viewBox="0 0 96 96" fill="none" xmlns="http://www.w3.org/2000/svg">
  <defs>
    <linearGradient id="grad-bg" x1="14" y1="8" x2="82" y2="88" gradientUnits="userSpaceOnUse">
      <stop offset="0" stop-color="#2563EB"/>
      <stop offset="1" stop-color="#38BDF8"/>
    </linearGradient>
    <linearGradient id="grad-spark" x1="26" y1="18" x2="54" y2="64" gradientUnits="userSpaceOnUse">
      <stop offset="0" stop-color="#F8FAFC" stop-opacity="0.95"/>
      <stop offset="1" stop-color="#E0F2FE" stop-opacity="0.65"/>
    </linearGradient>
    <filter id="shadow" x="10" y="10" width="76" height="78" filterUnits="userSpaceOnUse" color-interpolation-filters="sRGB">
      <feDropShadow dx="0" dy="6" stdDeviation="8" flood-color="#0F172A" flood-opacity="0.25" />
    </filter>
  </defs>
  <g filter="url(#shadow)">
    <rect x="16" y="14" width="64" height="68" rx="18" fill="url(#grad-bg)" />
  </g>
  <path d="M36.2 63.8L26 44.5C22.3 37.3 26.8 28.6 34.7 27l3.3-.6c3.5-.6 6.9 1.2 8.5 4.3l7.8 15.1c.5.9 1.8 1 2.4.2l6.5-8c1.4-1.7 3.8-1.7 5.1.1l1.9 2.7c1.3 1.8 1.3 4.6-.2 6.4L51.9 67.2c-2.4 2.9-7 2.4-8.7-1L39.8 52c-.5-1-1.8-1.1-2.4-.2l-2.8 4c-1.1 1.5-2.1 5.3 1.6 8z" fill="white"/>
  <path d="M30.4 30.3c.9-.3 1.8.1 2.2 1l5.2 10.7c.4.9 0 1.9-.9 2.3l-1.9.8c-.9.4-1.9 0-2.3-.9l-5.2-10.7c-.4-.9 0-1.9.9-2.3l1.9-.8z" fill="url(#grad-spark)"/>
  <circle cx="60.6" cy="35" r="6.2" stroke="#CFFAFE" stroke-width="3" fill="none"/>
  <path d="M59 36.2l4.9 6.8" stroke="#CFFAFE" stroke-width="3" stroke-linecap="round"/>
</svg>
